<svg width="100" height="90" viewBox="0 0 100 90" fill="none" xmlns="http://www.w3.org/2000/svg">
<path d="M3.24378 0.00026636C2.77641 -0.00576152 2.31339 0.0905877 1.88723 0.282551C1.46106 0.474513 1.08208 0.757436 0.77689 1.11145C0.471702 1.46547 0.247707 1.882 0.12063 2.3318C-0.00644604 2.7816 -0.0335229 3.25377 0.0413009 3.71514L13.6518 86.2431C13.8212 87.253 14.341 88.1709 15.12 88.8356C15.8989 89.5004 16.8872 89.8694 17.9111 89.8779H83.1457C83.9133 89.8878 84.6589 89.6216 85.2467 89.1278C85.8345 88.6341 86.2254 87.9456 86.3482 87.1878L99.9587 3.74717C100.034 3.28579 100.006 2.81363 99.8794 2.36383C99.7523 1.91403 99.5283 1.4975 99.2231 1.14348C98.9179 0.789461 98.5389 0.506538 98.1128 0.314575C97.6866 0.122612 97.2236 0.0262633 96.7562 0.0322911L3.24378 0.00026636ZM60.4881 59.6305H39.672L34.0356 30.1676H65.532L60.4881 59.6305Z" fill="#2684FF"/>
</svg>
