<svg width="78" height="100" viewBox="0 0 78 100" fill="none" xmlns="http://www.w3.org/2000/svg">
<path d="M35.3188 0H51.6875V75.6875C43.3 77.2812 37.1563 77.9172 30.4375 77.9172C10.475 77.9172 0.0703125 68.8922 0.0703125 51.5844C0.0703125 34.9125 11.1141 24.0844 28.2078 24.0844C30.8641 24.0844 32.8953 24.2953 35.3219 24.9328L35.3188 0ZM35.3188 38.0984C33.4078 37.4625 31.8156 37.25 29.7984 37.25C21.5172 37.25 16.7359 42.3469 16.7359 51.2656C16.7359 59.9734 21.3016 64.75 29.7047 64.75C31.5094 64.75 32.9953 64.6437 35.3297 64.3281L35.3188 38.0984ZM77.6828 25.25V63.1562C77.6828 76.2188 76.7266 82.4812 73.8609 87.8953C71.2047 93.0984 67.7016 96.3891 60.4828 100L45.2984 92.7812C52.5172 89.3844 56.0219 86.4125 58.2672 81.8438C60.6031 77.1562 61.3453 71.7562 61.3453 57.5312V25.25H77.6828ZM61.3313 0.0875H77.6828V16.8641H61.3313V0.0875Z" fill="white"/>
</svg>
