<svg width="103" height="100" viewBox="0 0 103 100" fill="none" xmlns="http://www.w3.org/2000/svg">
<path fill-rule="evenodd" clip-rule="evenodd" d="M51.2659 0C22.9578 0 0 22.939 0 51.2632C2.92926e-05 62.0254 3.38594 72.5148 9.67819 81.2459C15.9705 89.9769 24.8501 96.5071 35.0596 99.9116C37.6209 100.386 38.5613 98.7971 38.5613 97.4441C38.5613 96.2224 38.5131 92.1822 38.4916 87.8982C24.2304 91.0007 21.2217 81.8513 21.2217 81.8513C18.8881 75.925 15.5285 74.3496 15.5285 74.3496C10.8774 71.1668 15.8794 71.2338 15.8794 71.2338C21.0261 71.5954 23.7374 76.5171 23.7374 76.5171C28.3108 84.3537 35.7294 82.0871 38.6551 80.777C39.1159 77.4655 40.4447 75.2016 41.9102 73.9236C30.5238 72.6269 18.5532 68.2304 18.5532 48.5867C18.5532 42.99 20.5573 38.4059 23.8366 34.8265C23.3007 33.5352 21.5486 28.3215 24.3322 21.2592C24.3322 21.2592 28.6376 19.8821 38.4327 26.5157C46.8367 24.2116 55.7059 24.2116 64.1098 26.5157C73.8942 19.8821 78.1916 21.2592 78.1916 21.2592C80.9833 28.3215 79.2284 33.5352 78.6953 34.8265C81.9826 38.4166 83.9705 42.99 83.9705 48.5867C83.9705 68.2786 71.9786 72.6135 60.5626 73.8808C62.4005 75.4722 64.0455 78.5934 64.0455 83.3757C64.0455 90.2344 63.9866 95.7562 63.9866 97.4441C63.9866 98.8078 64.9082 100.407 67.507 99.9035C77.7096 96.495 86.5817 89.9638 92.8674 81.2346C99.1532 72.5053 102.534 62.0201 102.532 51.2632C102.532 22.939 79.5794 0 51.2659 0Z" fill="white"/>
</svg>
