<svg xmlns="http://www.w3.org/2000/svg" viewBox="0 0 142.63 158.18"><defs><style>.cls-1{fill:#32ba46;}.cls-1,.cls-2,.cls-3,.cls-4,.cls-5{fill-rule:evenodd;}.cls-2{fill:#4acc59;}.cls-3{fill:#5cd067;}.cls-4{fill:#95fc97;}.cls-5{fill:#73e57b;}</style></defs><g id="Layer_2" data-name="Layer 2"><g id="OBJECTS"><path class="cls-1" d="M54.7,156.46,14.57,129.39c-5.51-6.54-4.13-13.3-.72-20.14,3.9-6.06,3.6-12.5,1.44-19.1a34.73,34.73,0,0,1,.57-17.62C20,60.66,28,51.59,36.51,42.89c7-6.61,13.32-14,21-19.89a22.8,22.8,0,0,1,6.69-2.92C80.48,19.22,94.75,27.25,110,31a15.1,15.1,0,0,1,5.33,5.12c3.65,8,3.09,17.26,7,25.22,2.93,7.18,5.64,14.42,6.26,22.27a40,40,0,0,1-3.92,19.78c-21.45,45.45-31.81,26.71-49.47,47.77C73.16,153.68,59.41,157,54.7,156.46Z"/><path class="cls-2" d="M54.7,156.46c11-3.29,24.53-3.58,19.22-22.42-3.27-11.59,7.42-7.53,12.7-10,17.94-8.39,38.28-15.12,36.07-41.86C137.5,85,132.1,96.86,132.86,106c1.4,15.58-9.89,22.18-20.08,29.54C100.12,161.92,77.45,159.3,54.7,156.46Z"/><path class="cls-3" d="M112.78,135.51C115.13,125,128.55,121,127.89,108.7c4.54-16.35,4.41-32-3.89-47.58-7.93-14.87-9.47-31.23-7.24-48,3.79-2.37,7.5-2.47,11.09.42,21.58,27.06,13.72,58.11,11.79,88.49C138.5,120.2,138.47,138.37,112.78,135.51Z"/><path class="cls-3" d="M19.92,71.69l-.24,21c3.1,5.42-1.22,10.57-.59,15.91-3.4,6.49-5.44,13.29-4.52,20.77C-.76,123,5.05,109.35,4.26,98,3.56,81.25,9.5,66.15,15.13,51c1.52-.1,3-.15,4.57-.12C25,57.73,22.69,64.71,19.92,71.69Z"/><path class="cls-4" d="M25.1,35.36C30.64,3.67,58.54-9.95,81.16,8c.39,1.16.77,2.33,1.17,3.5C68.06,24.81,44.18,16,32.11,34.36A9.54,9.54,0,0,1,25.1,35.36Z"/><path class="cls-4" d="M15.13,51C17.06,68,10.86,83,4.26,98-2.74,79.73-2.39,63.27,15.13,51Z"/><path class="cls-3" d="M25.1,35.36l4.79-.6c1,0,2,.06,3,.07,4,2.35,10.52,2.85,7.25,10.46L19.92,71.69q-.11-10.43-.22-20.84Q22.4,43.1,25.1,35.36Z"/><path class="cls-4" d="M127.85,13.57l-10.4.16c-13,8.69-24.23,2.54-35.38-4.37,0,0-.9-1.36-.91-1.36C97.88-.28,113.62.06,127.85,13.57Z"/><path class="cls-5" d="M82.07,9.36c12.27-2.53,23.5,3.69,35.38,4.37,1.84,31.84,31.76,60.47,10.44,95-1.39-8.91,3.39-19.08-5.2-26.52-1.74-7-3.47-14.05-5.2-21.06-6.06-7.89,1.23-18.53-5.16-26.35h0C95.64,28.85,80.09,17,60.83,24.24h0C51.05,29,42.19,36.51,30.29,34.94l-.4-.18c2.59-16.34,14.82-19.27,27.92-20.91C66,12.82,75,16.33,82.07,9.36Z"/><path class="cls-3" d="M60.83,24.24C81.09,12,97.42,19.74,112.34,34.78,94,37.38,78.79,23.72,60.83,24.24Z"/><path class="cls-3" d="M30.29,34.94c8.78-7.74,18.46-12.79,30.54-10.69a53.88,53.88,0,0,1-20.64,21Z"/><path class="cls-2" d="M112.33,34.77c8.63,7.36,3.93,17.47,5.16,26.35C108.93,53.74,113.61,43.64,112.33,34.77Z"/><path d="M73.77,128.12c-10.85-.13-19.95-3-27.9-9.05a44.36,44.36,0,0,1-9.74-10A47.73,47.73,0,0,1,27.48,78,46.73,46.73,0,0,1,32.34,60.1,49.86,49.86,0,0,1,40.09,49a45.45,45.45,0,0,1,14-10.13C61.76,35,69.9,34,78.34,34.92a37.26,37.26,0,0,1,12,3.16c5.27,2.46,10.26,5.42,14.31,9.67a48.73,48.73,0,0,1,7.69,10.08,47.91,47.91,0,0,1,5.82,28.93A46.8,46.8,0,0,1,110.35,108,48.24,48.24,0,0,1,101,118.13,43.63,43.63,0,0,1,73.77,128.12ZM79.06,104A13.39,13.39,0,0,1,81,112c-.06,3.54,0,7.09,0,10.63v1l.76-.08c.21,0,.42-.06.63-.11a38.3,38.3,0,0,0,13.58-6.06,45.11,45.11,0,0,0,10-9.36,43.31,43.31,0,0,0,8.85-23.53,44,44,0,0,0-6.62-26.72A41,41,0,0,0,97.38,46.31a42.31,42.31,0,0,0-24.25-8.09,34.2,34.2,0,0,0-6.52.62A39.62,39.62,0,0,0,45.3,48.94,44.7,44.7,0,0,0,37,59a43.87,43.87,0,0,0-6,19.39,45.48,45.48,0,0,0,3.66,21.07,43.2,43.2,0,0,0,6,9.68A43.89,43.89,0,0,0,52.24,119a37,37,0,0,0,11.19,4.43c.73.18.93,0,.92-.72,0-1.68,0-3.36,0-5,0-1,0-1.1-1.08-.93-5.89,1-11.23-1.12-13.83-7.14a14.58,14.58,0,0,0-5.23-6.79c-.17-.11-.37-.45-.31-.58a.8.8,0,0,1,.59-.43,8.91,8.91,0,0,1,2,0,7.69,7.69,0,0,1,5.11,3.56,17.79,17.79,0,0,0,2.75,3.49A9.12,9.12,0,0,0,62,111c2.24-.34,2.23-.39,2.58-2.63,0-.06,0-.12,0-.18.47-1.46,1-2.92,1.42-4.38l-.3,0c-4.63-.77-8.92-2.2-12.1-6a14.92,14.92,0,0,1-3.24-6.17,30.8,30.8,0,0,1-.09-11.91,11.51,11.51,0,0,1,3-6.9,1.28,1.28,0,0,0,.34-1.53,14.43,14.43,0,0,1,0-8.91c.21-.73.64-1,1.3-.64a18.52,18.52,0,0,1,3.44,1.83A27.21,27.21,0,0,1,61.68,67c.45.51.77.64,1.38.28a8.16,8.16,0,0,1,2.11-.84A36.41,36.41,0,0,1,77.83,66a14.51,14.51,0,0,1,3.88,1c1.5.6,1.43.69,2.44-.62a12.6,12.6,0,0,1,6-4.57c1-.32,1.3-.18,1.61.84a13.27,13.27,0,0,1-.09,8.71A1.22,1.22,0,0,0,92,72.81a9.43,9.43,0,0,1,2.68,5,38.09,38.09,0,0,1,.75,11.37,15.4,15.4,0,0,1-5.1,10.12A16.2,16.2,0,0,1,83.22,103C81.9,103.39,80.55,103.63,79.06,104Z"/></g></g></svg>