<svg width="100" height="100" viewBox="0 0 100 100" fill="none" xmlns="http://www.w3.org/2000/svg">
<path d="M0 0H100V100H0V0Z" fill="#F7DF1E"/>
<path d="M26.2938 83.568L33.9462 78.9367C35.4228 81.5543 36.7657 83.7691 39.9872 83.7691C43.0751 83.7691 45.0224 82.5613 45.0224 77.8629V45.9105H54.4196V77.9957C54.4196 87.7289 48.7142 92.1594 40.3899 92.1594C32.8724 92.1594 28.5087 88.266 26.2935 83.5672L26.2938 83.568ZM59.5239 82.5609L67.1755 78.1309C69.1899 81.4203 71.8079 83.8367 76.4392 83.8367C80.3333 83.8367 82.8161 81.8898 82.8161 79.2047C82.8161 75.9828 80.2653 74.8414 75.9692 72.9625L73.6204 71.9547C66.8403 69.0691 62.3431 65.4441 62.3431 57.7918C62.3431 50.7434 67.713 45.373 76.104 45.373C82.0782 45.373 86.3743 47.4543 89.4618 52.8914L82.1446 57.5906C80.5333 54.7043 78.7888 53.5633 76.1036 53.5633C73.3513 53.5633 71.606 55.3086 71.606 57.5906C71.606 60.4098 73.3513 61.5516 77.3786 63.2969L79.7278 64.3035C87.7161 67.7273 92.2134 71.2176 92.2134 79.0707C92.2134 87.5293 85.5681 92.1605 76.6403 92.1605C67.9142 92.1605 62.2755 87.9988 59.5235 82.5613" fill="black"/>
</svg>
