<svg xmlns="http://www.w3.org/2000/svg" viewBox="0 0 122.08 138.7"><defs><style>.cls-1{fill:#169dc1;}.cls-2{fill:#18a1d1;}.cls-3{fill:#067fb5;}.cls-4{fill:#0077a0;}.cls-5,.cls-6{fill:#fff;}.cls-6,.cls-7{fill-rule:evenodd;}.cls-7{fill:#1c92d2;}</style></defs><g id="Layer_2" data-name="Layer 2"><g id="OBJECTS"><path class="cls-1" d="M77.29,85.57c-4.56-3.15-10-4.67-15.15-6.71S51.8,74,49,69.22c-2.36-4-2.75-8.8-3.56-13.37s-2.32-9.41-6.09-12.13c-4.78-3.46-11.61-2.25-16.73.71S13.38,51.81,8.44,55.05a34.44,34.44,0,0,1-3.22,1.86,22.19,22.19,0,0,0,1.62,7.84c.16.4.33.8.5,1.2a37.26,37.26,0,0,1,10.55.17c4.12.8,8.17,3,10.2,6.67s2.45,8.89,6.39,10.13C37.92,84,41.65,81,45.1,82a6.62,6.62,0,0,1,4.07,4.73,28.51,28.51,0,0,1,.65,6.46,39.09,39.09,0,0,0,2.33,11.21,52.44,52.44,0,0,1,19.39-3c4,.14,8,.74,12.09,1.29a10.81,10.81,0,0,0,1-3.15C85.44,94.05,81.84,88.72,77.29,85.57Z"/><path class="cls-2" d="M49.17,86.72A6.62,6.62,0,0,0,45.1,82c-3.45-1-7.18,2-10.62.93-3.94-1.24-4.4-6.51-6.39-10.13S22,66.92,17.89,66.12A37.26,37.26,0,0,0,7.34,66C10,72.05,13.26,78,13.66,84.65c.31,5-1.12,10-1.54,15.09s.46,10.69,4.31,14S26.2,117,31,115.22s9-4.9,13.45-7.38a53.57,53.57,0,0,1,7.69-3.45,39.09,39.09,0,0,1-2.33-11.21A28.51,28.51,0,0,0,49.17,86.72Z"/><path class="cls-3" d="M84.07,53.25c-.71-3-1.44-5.92-2.32-8.84C76.57,41,71.54,37.24,66.5,33.72c-13.66-9.55-30-18.16-46.29-14.45a37,37,0,0,0-9.87,3.85l-.18,1q-1.8,9.83-3.61,19.65A65.84,65.84,0,0,0,5.22,56.91a34.44,34.44,0,0,0,3.22-1.86c4.94-3.24,9-7.66,14.16-10.62s11.95-4.17,16.73-.71c3.77,2.72,5.28,7.56,6.09,12.13s1.2,9.38,3.56,13.37c2.82,4.77,8,7.6,13.16,9.64s10.59,3.56,15.15,6.71,8.15,8.48,7.32,14a10.81,10.81,0,0,1-1,3.15c5.08.69,10.13,1.31,15.05.84-3.82-5.75-5.52-12.65-7.15-19.38Q87.8,68.7,84.07,53.25Z"/><path class="cls-3" d="M120,88.47c2.89-6.76,2.62-14.58.44-21.61-1-3.22-2.39-6.39-3.72-9.55a57.13,57.13,0,0,1-6.4-.53C99.87,55.29,90.6,50.29,81.75,44.41c.88,2.92,1.61,5.89,2.32,8.84q3.74,15.44,7.46,30.88c1.63,6.73,3.33,13.63,7.15,19.38a28.08,28.08,0,0,0,6.42-1.32A25.06,25.06,0,0,0,120,88.47Z"/><path class="cls-4" d="M116.53,27.27a23.78,23.78,0,0,1-2.53.1c-5-.08-9.78-1.61-14.42-3.4-13.09-5-25.24-12.23-37.95-18.18-3.37-1.57-6.8-3.06-10.29-4.4A55.53,55.53,0,0,0,34.85.2c-8.8.87-17.75,5.33-21.69,13.25a36.59,36.59,0,0,0-2.82,9.67,37,37,0,0,1,9.87-3.85c16.24-3.71,32.63,4.9,46.29,14.45s27.28,20.7,43.78,23.06a57.13,57.13,0,0,0,6.4.53c-2.47-5.91-4.74-11.81-3.92-18C113.3,35.24,115.13,31.22,116.53,27.27Z"/><path class="cls-3" d="M99.58,24c4.64,1.79,9.46,3.32,14.42,3.4a23.78,23.78,0,0,0,2.53-.1c1.55-4.37,2.57-8.64.74-12.77C115,9.45,109.13,7,103.61,6.65s-11,1-16.51,1.26c-8.84.4-17.54-2-26.1-4.21-3.19-.83-6.41-1.65-9.66-2.31,3.49,1.34,6.92,2.83,10.29,4.4C74.34,11.74,86.49,18.92,99.58,24Z"/><rect class="cls-5" x="34.95" y="31.99" width="12.2" height="38.69"/><path class="cls-6" d="M48.19,19.53a7.14,7.14,0,1,1-7.14-7.14A7.14,7.14,0,0,1,48.19,19.53Z"/><path class="cls-6" d="M80.19,30.56c-8.27,0-11.8,4.28-12.82,5.86V32H55.17V70.67h12.2V47.83s1.06-6.8,6.8-6.8,6.74,6.24,6.74,8V70.84h12.2v-23C93.11,40.48,90.33,30.56,80.19,30.56Z"/><path class="cls-7" d="M4.19,136.82c-2.84-5-9.8-13.12,4.62-13.67,7.28-1.94,11.87,11.4,11.87,11.4S6.52,142.11,4.19,136.82Z"/></g></g></svg>