<svg width="145" height="100" viewBox="0 0 145 100" fill="none" xmlns="http://www.w3.org/2000/svg">
<g clip-path="url(#clip0)">
<path d="M44.1577 80.7598H40.2522C40.1141 74.1677 39.7338 67.9702 39.1119 62.1629H39.0772L33.131 80.7598H30.1576L24.2469 62.1629H24.213C23.7745 67.7385 23.4983 73.9375 23.3836 80.7598H19.8237C20.0532 72.4636 20.6297 64.6858 21.5512 57.4258H26.3917L32.0254 74.5714H32.0602L37.7286 57.4258H42.3601C43.3744 65.9296 43.9736 73.7081 44.1577 80.7598ZM61.0951 63.544C59.5049 72.1731 57.4069 78.443 54.8033 82.3568C52.7747 85.3695 50.5521 86.8773 48.1319 86.8773C47.4866 86.8773 46.6904 86.6826 45.7471 86.2962V84.2155C46.2082 84.282 46.7493 84.3197 47.3711 84.3197C48.5017 84.3197 49.4103 84.0088 50.1031 83.3854C50.9317 82.6262 51.3461 81.7726 51.3461 80.8285C51.3461 80.181 51.0231 78.8573 50.3786 76.8528L46.0927 63.5432H49.9295L53.0056 73.4975C53.6969 75.7578 53.9852 77.3358 53.8697 78.2347C55.5519 73.742 56.7269 68.8434 57.3964 63.5425H61.0951V63.544Z" fill="#5D87A1"/>
<path d="M113.082 80.7594H101.988V57.4253H105.72V77.887H113.082V80.7594ZM99.0838 81.3231L94.7942 79.2062C95.1745 78.8938 95.5383 78.5557 95.8658 78.164C97.6892 76.0222 98.5985 72.8548 98.5985 68.6595C98.5985 60.9398 95.5692 57.0781 89.5084 57.0781C86.5364 57.0781 84.2181 58.0577 82.56 60.0176C80.7382 62.1609 79.8288 65.317 79.8288 69.4897C79.8288 73.5914 80.6348 76.6003 82.2476 78.5089C83.723 80.2379 85.947 81.1035 88.9212 81.1035C90.0306 81.1035 91.0487 80.9677 91.9762 80.6937L97.5609 83.9449L99.0838 81.3231ZM85.1878 76.0901C84.243 74.5702 83.7705 72.1296 83.7705 68.7644C83.7705 62.8892 85.5554 59.9482 89.1288 59.9482C90.9966 59.9482 92.3656 60.6516 93.2411 62.0553C94.1844 63.5775 94.6591 65.9962 94.6591 69.3146C94.6591 75.2381 92.8728 78.2002 89.3016 78.2002C87.433 78.201 86.064 77.4999 85.1878 76.0901ZM78.2025 74.2917C78.2025 76.2705 77.4765 77.8938 76.026 79.1655C74.574 80.4318 72.6269 81.0665 70.187 81.0665C67.9048 81.0665 65.6921 80.3375 63.5503 78.887L64.5533 76.8833C66.3962 77.8063 68.0648 78.2651 69.5629 78.2651C70.9688 78.2651 72.0677 77.9534 72.8646 77.3354C73.6608 76.715 74.1355 75.8449 74.1355 74.7445C74.1355 73.3582 73.1687 72.1733 71.3952 71.1809C69.7598 70.2828 66.489 68.4052 66.489 68.4052C64.7163 67.1132 63.8288 65.7261 63.8288 63.4409C63.8288 61.5496 64.4906 60.0229 65.8151 58.8614C67.1411 57.6955 68.8519 57.1143 70.9492 57.1143C73.1152 57.1143 75.0841 57.6947 76.8576 58.8433L75.958 60.8478C74.4411 60.2033 72.9438 59.881 71.4669 59.881C70.2707 59.881 69.347 60.1686 68.7048 60.7459C68.0573 61.321 67.658 62.0568 67.658 62.9594C67.658 64.3389 68.6452 65.5389 70.467 66.5509C72.1243 67.4505 75.4766 69.3606 75.4766 69.3606C77.2946 70.6504 78.2025 72.0246 78.2025 74.2917Z" fill="#F8981D"/>
<path d="M117.767 49.6105C115.51 49.5531 113.763 49.7803 112.297 50.4007C111.873 50.5697 111.2 50.5697 111.141 51.1048C111.37 51.3312 111.396 51.6964 111.595 52.0089C111.933 52.5726 112.522 53.3311 113.061 53.7265C113.651 54.1794 114.245 54.6276 114.867 55.0223C115.963 55.7008 117.206 56.0955 118.275 56.7717C118.897 57.1649 119.516 57.6735 120.14 58.0969C120.446 58.3226 120.642 58.6886 121.04 58.8297V58.7437C120.841 58.4901 120.784 58.1233 120.589 57.8411L119.742 57.0245C118.924 55.9257 117.907 54.9665 116.811 54.1786C115.908 53.5567 113.934 52.7115 113.568 51.6715L113.51 51.6142C114.131 51.5561 114.867 51.3312 115.456 51.1584C116.415 50.9055 117.29 50.9629 118.274 50.7101C118.727 50.5969 119.176 50.455 119.63 50.3154V50.061C119.12 49.5531 118.756 48.8785 118.22 48.3985C116.784 47.1585 115.202 45.9458 113.568 44.9307C112.692 44.3655 111.566 44.0017 110.634 43.521C110.298 43.3512 109.732 43.2674 109.535 42.9851C109.029 42.3648 108.745 41.5482 108.378 40.8139C107.563 39.2645 106.771 37.5454 106.068 35.907C105.559 34.8081 105.25 33.7108 104.629 32.6943C101.724 27.902 98.5684 24.9995 93.7188 22.1506C92.6765 21.5574 91.4366 21.3046 90.1121 20.9937L87.9967 20.882C87.5454 20.6842 87.0934 20.1477 86.6994 19.8941C85.0904 18.8798 80.948 16.6814 79.7646 19.5839C79.0024 21.4185 80.8921 23.2222 81.5412 24.1528C82.0204 24.7988 82.6415 25.5338 82.9766 26.2674C83.1751 26.7466 83.2309 27.2553 83.4294 27.7617C83.8807 29.0024 84.3026 30.3827 84.8957 31.5404C85.2052 32.1305 85.5425 32.7509 85.938 33.2852C86.1644 33.5976 86.5583 33.7357 86.6443 34.2451C86.2511 34.8066 86.2202 35.6541 85.9946 36.359C84.9803 39.5445 85.3765 43.4908 86.8141 45.8318C87.2639 46.5367 88.3371 48.0883 89.7725 47.4936C91.0434 46.9865 90.7619 45.3797 91.1272 43.9708C91.2109 43.6304 91.1558 43.407 91.3249 43.1836V43.2387C91.7181 44.0274 92.1151 44.7873 92.4796 45.5782C93.3542 46.9585 94.8772 48.397 96.1458 49.3532C96.8213 49.8633 97.3563 50.7357 98.2023 51.0474V50.9629H98.1465C97.9752 50.7101 97.7246 50.5969 97.4997 50.4007C96.9911 49.8928 96.4281 49.2724 96.0334 48.7094C94.8515 47.1299 93.8055 45.3813 92.8773 43.5768C92.423 42.7014 92.0313 41.7444 91.6653 40.8705C91.4947 40.5332 91.4947 40.0245 91.2117 39.8547C90.7876 40.4743 90.1695 41.0109 89.8601 41.7701C89.3235 42.9844 89.2676 44.4779 89.0684 46.031L88.9574 46.0854C88.0594 45.8597 87.7469 44.9307 87.4058 44.1421C86.5613 42.1391 86.4194 38.9242 87.1522 36.6133C87.3485 36.0224 88.1975 34.1614 87.8586 33.5984C87.6888 33.0588 87.1243 32.7516 86.8149 32.3267C86.4511 31.7924 86.0527 31.1162 85.7991 30.523C85.1229 28.945 84.7825 27.1964 84.0543 25.6191C83.7139 24.8841 83.123 24.1233 82.6445 23.4464C82.1072 22.6857 81.5163 22.1498 81.0914 21.248C80.951 20.9378 80.754 20.4307 80.9797 20.0933C81.0348 19.8669 81.1495 19.7824 81.3744 19.7258C81.7396 19.4171 82.7834 19.8096 83.1494 19.9794C84.1946 20.402 85.0686 20.7967 85.941 21.3884C86.3357 21.6714 86.7591 22.2072 87.2654 22.3483H87.8586C88.759 22.5445 89.774 22.4027 90.6215 22.6577C92.1151 23.1377 93.4682 23.8418 94.6817 24.6018C98.3744 26.9436 101.42 30.271 103.475 34.2451C103.813 34.8927 103.956 35.4858 104.264 36.1613C104.858 37.5439 105.592 38.9536 106.182 40.3068C106.774 41.6312 107.339 42.9836 108.185 44.084C108.606 44.6756 110.301 44.9858 111.061 45.296C111.624 45.5488 112.499 45.7737 113.006 46.0839C113.965 46.6748 114.921 47.3532 115.823 48.003C116.272 48.3411 117.683 49.046 117.767 49.6105ZM89.0088 25.1105C88.6195 25.1064 88.2315 25.1541 87.8549 25.2523V25.3089H87.9092C88.1364 25.7595 88.5311 26.0719 88.8125 26.4651C89.0397 26.9172 89.2367 27.3655 89.4593 27.8168L89.5137 27.7609C89.9114 27.4794 90.1091 27.0281 90.1091 26.3512C89.9378 26.1519 89.9114 25.9572 89.7687 25.7595C89.6027 25.4772 89.2367 25.3369 89.0088 25.1105Z" fill="#5D87A1"/>
<path d="M120.452 80.756H121.036V77.8972H120.16L119.446 79.8481L118.669 77.8972H117.825V80.756H118.377V78.581H118.408L119.221 80.756H119.642L120.452 78.581V80.756ZM115.747 80.756H116.365V78.3817H117.174V77.8965H114.904V78.3817H115.745L115.747 80.756Z" fill="#F8981D"/>
</g>
<defs>
<clipPath id="clip0">
<rect width="144.259" height="100" fill="white"/>
</clipPath>
</defs>
</svg>
