<svg width="101" height="100" viewBox="0 0 101 100" fill="none" xmlns="http://www.w3.org/2000/svg">
<g clip-path="url(#clip0)">
<path d="M49.7708 0.0273438C24.3464 0.0273438 25.9339 11.0528 25.9339 11.0528L25.9621 22.4756H50.2241V25.905H16.3257C16.3257 25.905 0.0566406 24.0599 0.0566406 49.7128C0.0566406 75.3666 14.2566 74.4567 14.2566 74.4567H22.7312V62.5524C22.7312 62.5524 22.2743 48.3524 36.7045 48.3524H60.768C60.768 48.3524 74.2876 48.5709 74.2876 35.2862V13.3207C74.2876 13.3207 76.341 0.0273438 49.7708 0.0273438ZM36.3927 7.70891C36.966 7.7084 37.5338 7.82094 38.0636 8.0401C38.5934 8.25927 39.0748 8.58075 39.4802 8.98615C39.8856 9.39156 40.2071 9.87292 40.4262 10.4027C40.6454 10.9325 40.7579 11.5003 40.7574 12.0736C40.7579 12.6469 40.6454 13.2147 40.4262 13.7445C40.2071 14.2743 39.8856 14.7557 39.4802 15.1611C39.0748 15.5665 38.5934 15.888 38.0636 16.1071C37.5338 16.3263 36.966 16.4388 36.3927 16.4383C35.8194 16.4388 35.2516 16.3263 34.7218 16.1071C34.192 15.888 33.7107 15.5665 33.3053 15.1611C32.8999 14.7557 32.5784 14.2743 32.3592 13.7445C32.14 13.2147 32.0275 12.6469 32.028 12.0736C32.0275 11.5003 32.14 10.9325 32.3592 10.4027C32.5784 9.87292 32.8999 9.39156 33.3053 8.98615C33.7107 8.58075 34.192 8.25927 34.7218 8.0401C35.2516 7.82094 35.8194 7.7084 36.3927 7.70891Z" fill="url(#paint0_linear)"/>
<path d="M50.4928 99.6559C75.9171 99.6559 74.3296 88.6305 74.3296 88.6305L74.3014 77.2081H50.039V73.7787H83.9375C83.9375 73.7787 100.206 75.6238 100.206 49.9701C100.206 24.3168 86.0065 25.2266 86.0065 25.2266H77.532V37.1305C77.532 37.1305 77.9888 51.3305 63.5586 51.3305H39.4951C39.4951 51.3305 25.9755 51.1121 25.9755 64.3972V86.363C25.9755 86.363 23.9226 99.6559 50.4924 99.6559H50.4928ZM63.8708 91.9752C63.2975 91.9757 62.7297 91.8631 62.1999 91.644C61.6701 91.4248 61.1887 91.1033 60.7833 90.6979C60.3779 90.2925 60.0564 89.8111 59.8373 89.2814C59.6181 88.7516 59.5056 88.1838 59.5061 87.6105C59.5055 87.0371 59.618 86.4693 59.8372 85.9394C60.0563 85.4096 60.3778 84.9282 60.7832 84.5227C61.1886 84.1173 61.67 83.7958 62.1998 83.5766C62.7296 83.3574 63.2974 83.2449 63.8708 83.2454C64.4441 83.2449 65.0119 83.3574 65.5417 83.5766C66.0715 83.7957 66.5529 84.1172 66.9583 84.5226C67.3637 84.928 67.6851 85.4094 67.9043 85.9392C68.1235 86.4689 68.236 87.0367 68.2355 87.6101C68.236 88.1834 68.1235 88.7512 67.9043 89.281C67.6851 89.8108 67.3637 90.2921 66.9583 90.6975C66.5529 91.1029 66.0715 91.4244 65.5417 91.6436C65.0119 91.8627 64.4441 91.9753 63.8708 91.9748V91.9752Z" fill="url(#paint1_linear)"/>
</g>
<defs>
<linearGradient id="paint0_linear" x1="9.681" y1="8.98838" x2="59.3122" y2="58.1245" gradientUnits="userSpaceOnUse">
<stop stop-color="#387EB8"/>
<stop offset="1" stop-color="#366994"/>
</linearGradient>
<linearGradient id="paint1_linear" x1="40.1447" y1="40.5403" x2="93.4428" y2="90.9248" gradientUnits="userSpaceOnUse">
<stop stop-color="#FFE052"/>
<stop offset="1" stop-color="#FFC331"/>
</linearGradient>
<clipPath id="clip0">
<rect width="100.402" height="100" fill="white"/>
</clipPath>
</defs>
</svg>
