<svg width="110" height="99" viewBox="0 0 110 99" fill="none" xmlns="http://www.w3.org/2000/svg">
<path d="M110 49.6821C110 42.3951 100.874 35.4893 86.8834 31.2068C90.1121 16.9467 88.6771 5.60138 82.3543 1.9691C80.8969 1.11708 79.1928 0.713492 77.3318 0.713492V5.71349C78.3632 5.71349 79.1928 5.91529 79.8879 6.29645C82.9372 8.04533 84.2601 14.7045 83.2287 23.2695C82.9821 25.3772 82.5785 27.5969 82.0852 29.8615C77.6906 28.7852 72.8924 27.9556 67.8475 27.4175C64.8206 23.2695 61.6816 19.5027 58.5202 16.2068C65.8296 9.41304 72.6906 5.69107 77.3543 5.69107V0.691071C71.1883 0.691071 63.1166 5.08569 54.9552 12.709C46.7937 5.13053 38.722 0.780757 32.5561 0.780757V5.78076C37.1973 5.78076 44.0807 9.48031 51.3901 16.2292C48.2511 19.5252 45.1121 23.2695 42.13 27.4175C37.0628 27.9556 32.2646 28.7852 27.87 29.8839C27.3543 27.6417 26.9731 25.4669 26.704 23.3817C25.6502 14.8166 26.9507 8.15744 29.9776 6.38614C30.6502 5.98255 31.5247 5.80318 32.5561 5.80318V0.803178C30.6726 0.803178 28.9686 1.20677 27.4888 2.05878C21.1883 5.69107 19.7758 17.0139 23.0269 31.2292C9.08072 35.5341 0 42.4175 0 49.6821C0 56.9691 9.12556 63.8749 23.1166 68.1574C19.8879 82.4175 21.3229 93.7628 27.6457 97.3951C29.1031 98.2471 30.8072 98.6507 32.6906 98.6507C38.8565 98.6507 46.9283 94.2561 55.0897 86.6328C63.2511 94.2113 71.3229 98.561 77.4888 98.561C79.3722 98.561 81.0762 98.1574 82.5561 97.3054C88.8565 93.6731 90.2691 82.3503 87.0179 68.135C100.919 63.8525 110 56.9467 110 49.6821ZM80.8072 34.7269C79.9776 37.6193 78.9462 40.6014 77.7803 43.5834C76.861 41.7897 75.8969 39.996 74.843 38.2023C73.8117 36.4086 72.713 34.6597 71.6144 32.9556C74.7982 33.4265 77.8699 34.0095 80.8072 34.7269ZM70.5381 58.6059C68.7892 61.6328 66.9955 64.5027 65.1345 67.1709C61.7937 67.4624 58.4081 67.6193 55 67.6193C51.6144 67.6193 48.2287 67.4624 44.9103 67.1933C43.0493 64.5252 41.2332 61.6776 39.4843 58.6731C37.7803 55.7359 36.2332 52.7538 34.8206 49.7494C36.2108 46.7449 37.7803 43.7404 39.4619 40.8032C41.2108 37.7763 43.0045 34.9063 44.8655 32.2382C48.2063 31.9467 51.5919 31.7897 55 31.7897C58.3857 31.7897 61.7713 31.9467 65.0897 32.2157C66.9507 34.8839 68.7668 37.7314 70.5157 40.7359C72.2197 43.6731 73.7668 46.6552 75.1794 49.6597C73.7668 52.6642 72.2197 55.6686 70.5381 58.6059ZM77.7803 55.6911C78.991 58.6956 80.0224 61.7 80.8744 64.6148C77.9372 65.3323 74.843 65.9377 71.6368 66.4086C72.7354 64.6821 73.8341 62.9108 74.8655 61.0947C75.8969 59.3009 76.861 57.4848 77.7803 55.6911ZM55.0448 79.6148C52.9596 77.4624 50.8744 75.0633 48.8117 72.4399C50.8296 72.5296 52.8924 72.5969 54.9776 72.5969C57.0852 72.5969 59.1704 72.5521 61.2108 72.4399C59.1928 75.0633 57.1076 77.4624 55.0448 79.6148ZM38.3632 66.4086C35.1794 65.9377 32.1076 65.3548 29.1704 64.6373C30 61.7449 31.0314 58.7628 32.1973 55.7808C33.1166 57.5745 34.0807 59.3682 35.1345 61.1619C36.1883 62.9557 37.2646 64.7045 38.3632 66.4086ZM54.9327 19.7494C57.0179 21.9018 59.1031 24.3009 61.1659 26.9243C59.148 26.8346 57.0852 26.7673 55 26.7673C52.8924 26.7673 50.8072 26.8121 48.7668 26.9243C50.7848 24.3009 52.87 21.9018 54.9327 19.7494ZM38.3408 32.9556C37.2422 34.6821 36.1435 36.4534 35.1121 38.2696C34.0807 40.0633 33.1166 41.857 32.1973 43.6507C30.9865 40.6462 29.9552 37.6417 29.1031 34.7269C32.0404 34.0319 35.1345 33.4265 38.3408 32.9556ZM18.0493 61.0274C10.1121 57.6417 4.97758 53.2023 4.97758 49.6821C4.97758 46.1619 10.1121 41.7 18.0493 38.3368C19.9776 37.5072 22.0852 36.7673 24.2601 36.0722C25.5381 40.4669 27.2197 45.0409 29.3049 49.7269C27.2422 54.3906 25.583 58.9422 24.3274 63.3144C22.1076 62.6193 20 61.857 18.0493 61.0274ZM30.1121 93.0678C27.0628 91.3189 25.7399 84.6597 26.7713 76.0947C27.0179 73.987 27.4215 71.7673 27.9148 69.5027C32.3094 70.579 37.1076 71.4086 42.1525 71.9467C45.1794 76.0947 48.3184 79.8615 51.4798 83.1574C44.1704 89.9512 37.3094 93.6731 32.6457 93.6731C31.6368 93.6507 30.7848 93.4489 30.1121 93.0678ZM83.296 75.9826C84.3498 84.5476 83.0493 91.2068 80.0224 92.9781C79.3498 93.3817 78.4753 93.561 77.4439 93.561C72.8027 93.561 65.9193 89.8615 58.6099 83.1126C61.7489 79.8166 64.8879 76.0722 67.87 71.9243C72.9372 71.3861 77.7354 70.5565 82.13 69.4579C82.6457 71.7225 83.0493 73.8973 83.296 75.9826ZM91.9283 61.0274C90 61.857 87.8924 62.5969 85.7175 63.292C84.4395 58.8974 82.7579 54.3234 80.6726 49.6373C82.7354 44.9736 84.3946 40.422 85.6502 36.0498C87.87 36.7449 89.9776 37.5072 91.9507 38.3368C99.8879 41.7225 105.022 46.1619 105.022 49.6821C105 53.2023 99.8655 57.6642 91.9283 61.0274Z" fill="#61DAFB"/>
<path d="M54.978 59.929C60.6371 59.929 65.2246 55.3414 65.2246 49.6823C65.2246 44.0233 60.6371 39.4357 54.978 39.4357C49.319 39.4357 44.7314 44.0233 44.7314 49.6823C44.7314 55.3414 49.319 59.929 54.978 59.929Z" fill="#61DAFB"/>
</svg>
