<svg width="100" height="100" viewBox="0 0 100 100" fill="none" xmlns="http://www.w3.org/2000/svg">
<path d="M53.8776 76.4073C53.8345 75.8605 53.8087 75.5052 53.8087 75.5052C53.8087 75.5052 52.1507 64.327 50.1769 60.9913C49.8647 60.4625 50.2109 58.2908 51.0823 55.0741C51.5917 55.9549 53.7421 59.7226 54.1738 60.9365C54.6601 62.3091 54.7623 62.7023 54.7623 62.7023C54.7623 62.7023 53.583 56.6342 51.6477 53.0933C52.0719 51.6617 52.5786 50.0794 53.152 48.388C53.8852 49.6742 55.6402 52.788 56.0265 53.8681C56.1045 54.0901 56.1704 54.2787 56.2295 54.4514C56.2484 54.3476 56.2674 54.2438 56.2863 54.1401C55.8432 52.2601 54.9729 48.9887 53.7815 46.5717C56.4249 32.8127 65.4408 14.422 74.6839 6.21663H14.3878C10.3466 6.21663 7.04025 9.52363 7.04025 13.5646V80.0599C7.04025 84.1006 10.3466 87.4071 14.3878 87.4071H54.1003C53.814 83.9409 53.7186 80.106 53.8776 76.4073Z" fill="#0F80CC"/>
<path d="M51.0822 55.074C51.5916 55.9548 53.7419 59.7225 54.1737 60.9364C54.66 62.309 54.7622 62.7023 54.7622 62.7023C54.7622 62.7023 53.5829 56.6341 51.6476 53.0932C52.0718 51.6616 52.5785 50.0793 53.1519 48.3879C53.8222 49.5642 55.3455 52.266 55.8961 53.5461C55.9166 53.3045 55.937 53.0629 55.9582 52.8235C55.4704 50.9489 54.7297 48.4947 53.7813 46.5716C56.2158 33.9034 64.0515 17.3153 72.4932 8.3601H14.3876C11.5182 8.3601 9.18317 10.6945 9.18317 13.5645V75.2083C22.3428 70.1577 38.2107 65.5408 51.8673 65.7388C51.3603 63.7836 50.783 62.0158 50.1768 60.9912C49.8646 60.4624 50.2108 58.2907 51.0822 55.074Z" fill="url(#paint0_linear)"/>
<path d="M88.7482 4.04063C84.6187 0.357941 79.6188 1.83722 74.684 6.21675C73.9516 6.86739 73.2207 7.58924 72.4935 8.36031C64.0518 17.3156 56.2161 33.9036 53.7816 46.5718C54.73 48.495 55.4707 50.9491 55.9585 52.8237C56.0835 53.3047 56.1964 53.7561 56.2865 54.1402C56.5009 55.049 56.616 55.6384 56.616 55.6384C56.616 55.6384 56.5402 55.352 56.2297 54.4515C56.1706 54.2788 56.1047 54.0902 56.0267 53.8683C55.9934 53.7766 55.9472 53.6653 55.8964 53.5463C55.3458 52.2663 53.8225 49.5645 53.1522 48.3882C52.5788 50.0795 52.0721 51.6618 51.6479 53.0934C53.5832 56.6343 54.7625 62.7025 54.7625 62.7025C54.7625 62.7025 54.6603 62.3092 54.174 60.9366C53.7423 59.7227 51.5919 55.955 51.0825 55.0742C50.2111 58.2909 49.8649 60.4626 50.1771 60.9914C50.7833 62.016 51.3606 63.7839 51.8676 65.739C53.0128 70.1434 53.8089 75.5053 53.8089 75.5053C53.8089 75.5053 53.8347 75.8606 53.8778 76.4074C53.7188 80.1062 53.8142 83.941 54.1005 87.4072C54.48 91.9957 55.1943 95.9373 56.1047 98.0469L56.7228 97.7099C55.3859 93.5537 54.8428 88.1069 55.0807 81.8255C55.4404 72.2241 57.6499 60.6452 61.7325 48.5768C68.6298 30.3587 78.1993 15.7416 86.9576 8.76101C78.9749 15.9704 68.1708 39.3064 64.9365 47.9481C61.3152 57.6252 58.749 66.7062 57.2023 75.4068C59.8707 67.2501 68.4988 63.7439 68.4988 63.7439C68.4988 63.7439 72.7306 58.5249 77.6759 51.0687C74.7136 51.7444 69.8493 52.901 68.22 53.5857C65.8166 54.5939 65.169 54.9378 65.169 54.9378C65.169 54.9378 72.954 50.1969 79.6332 48.0503C88.8187 33.5832 98.826 13.0307 88.7482 4.04063Z" fill="white"/>
<defs>
<linearGradient id="paint0_linear" x1="45.6887" y1="9.7281" x2="45.6887" y2="71.4907" gradientUnits="userSpaceOnUse">
<stop stop-color="#97D9F6"/>
<stop offset="0.920245" stop-color="#0F80CC"/>
<stop offset="1" stop-color="#0F80CC"/>
</linearGradient>
</defs>
</svg>
