<svg width="102" height="100" viewBox="0 0 102 100" fill="none" xmlns="http://www.w3.org/2000/svg">
<path d="M2.9105 35.7473C2.9105 35.7473 0.499893 34.0097 3.39262 31.6895L10.1323 25.663C10.1323 25.663 12.0608 23.6341 14.0997 25.4018L76.2934 72.4889V95.0682C76.2934 95.0682 76.2633 98.6138 71.7132 98.2221L2.9105 35.7473Z" fill="#2489CA"/>
<path d="M18.941 50.3004L2.91049 64.8745C2.91049 64.8745 1.26325 66.0999 2.91049 68.2896L10.3532 75.0594C10.3532 75.0594 12.121 76.9577 14.7325 74.7982L31.7273 61.9115L18.941 50.3004Z" fill="#1070B3"/>
<path d="M47.0846 50.4214L76.484 27.9727L76.2932 5.51384C76.2932 5.51384 75.0376 0.612278 70.8492 3.1635L31.7271 38.7702L47.0846 50.4214Z" fill="#0877B9"/>
<path d="M71.7131 98.2519C73.4207 99.9996 75.4898 99.427 75.4898 99.427L98.4008 88.1374C101.334 86.1386 100.922 83.6577 100.922 83.6577V16.241C100.922 13.278 97.8886 12.2535 97.8886 12.2535L78.031 2.68136C73.6919 -0.000444651 70.8493 3.16348 70.8493 3.16348C70.8493 3.16348 74.5054 0.531898 76.2933 5.51382V94.6561C76.2933 95.2688 76.1627 95.8714 75.9016 96.4138C75.3793 97.4684 74.2443 98.4528 71.5223 98.0409L71.7131 98.2519Z" fill="#3C99D4"/>
</svg>
