<svg xmlns="http://www.w3.org/2000/svg" viewBox="0 0 142.63 158.18"><defs><style>.cls-1{fill:#32ba46;}.cls-1,.cls-2,.cls-3,.cls-4,.cls-5{fill-rule:evenodd;}.cls-2{fill:#4acc59;}.cls-3{fill:#5cd067;}.cls-4{fill:#95fc97;}.cls-5{fill:#73e57b;}.cls-6{fill:none;}.cls-7{fill:#fff;}</style></defs><g id="Layer_2" data-name="Layer 2"><g id="OBJECTS"><path class="cls-1" d="M54.7,156.46,14.57,129.39c-5.51-6.54-4.13-13.3-.72-20.14,3.9-6.06,3.6-12.5,1.44-19.1a34.73,34.73,0,0,1,.57-17.62C20,60.66,28,51.59,36.51,42.89c7-6.61,13.32-14,21-19.89a22.8,22.8,0,0,1,6.69-2.92C80.48,19.22,94.75,27.25,110,31a15.1,15.1,0,0,1,5.33,5.12c3.65,8,3.09,17.26,7,25.22,2.93,7.18,5.64,14.42,6.26,22.27a40,40,0,0,1-3.92,19.78c-21.45,45.45-31.81,26.71-49.47,47.77C73.16,153.68,59.41,157,54.7,156.46Z"/><path class="cls-2" d="M54.7,156.46c11-3.29,24.53-3.58,19.22-22.42-3.27-11.59,7.42-7.53,12.7-10,17.94-8.39,38.28-15.12,36.07-41.86C137.5,85,132.1,96.86,132.86,106c1.4,15.58-9.89,22.18-20.08,29.54C100.12,161.92,77.45,159.3,54.7,156.46Z"/><path class="cls-3" d="M112.78,135.51C115.13,125,128.55,121,127.89,108.7c4.54-16.35,4.41-32-3.89-47.58-7.93-14.87-9.47-31.23-7.24-48,3.79-2.37,7.5-2.47,11.09.42,21.58,27.06,13.72,58.11,11.79,88.49C138.5,120.2,138.47,138.37,112.78,135.51Z"/><path class="cls-3" d="M19.92,71.69l-.24,21c3.1,5.42-1.22,10.57-.59,15.91-3.4,6.49-5.44,13.29-4.52,20.77C-.76,123,5.05,109.35,4.26,98,3.56,81.25,9.5,66.15,15.13,51c1.52-.1,3-.15,4.57-.12C25,57.73,22.69,64.71,19.92,71.69Z"/><path class="cls-4" d="M25.1,35.36C30.64,3.67,58.54-9.95,81.16,8c.39,1.16.77,2.33,1.17,3.5C68.06,24.81,44.18,16,32.11,34.36A9.54,9.54,0,0,1,25.1,35.36Z"/><path class="cls-4" d="M15.13,51C17.06,68,10.86,83,4.26,98-2.74,79.73-2.39,63.27,15.13,51Z"/><path class="cls-3" d="M25.1,35.36l4.79-.6c1,0,2,.06,3,.07,4,2.35,10.52,2.85,7.25,10.46L19.92,71.69q-.11-10.43-.22-20.84Q22.4,43.1,25.1,35.36Z"/><path class="cls-4" d="M127.85,13.57l-10.4.16c-13,8.69-24.23,2.54-35.38-4.37,0,0-.9-1.36-.91-1.36C97.88-.28,113.62.06,127.85,13.57Z"/><path class="cls-5" d="M82.07,9.36c12.27-2.53,23.5,3.69,35.38,4.37,1.84,31.84,31.76,60.47,10.44,95-1.39-8.91,3.39-19.08-5.2-26.52-1.74-7-3.47-14.05-5.2-21.06-6.06-7.89,1.23-18.53-5.16-26.35h0C95.64,28.85,80.09,17,60.83,24.24h0C51.05,29,42.19,36.51,30.29,34.94l-.4-.18c2.59-16.34,14.82-19.27,27.92-20.91C66,12.82,75,16.33,82.07,9.36Z"/><path class="cls-3" d="M60.83,24.24C81.09,12,97.42,19.74,112.34,34.78,94,37.38,78.79,23.72,60.83,24.24Z"/><path class="cls-3" d="M30.29,34.94c8.78-7.74,18.46-12.79,30.54-10.69a53.88,53.88,0,0,1-20.64,21Z"/><path class="cls-2" d="M112.33,34.77c8.63,7.36,3.93,17.47,5.16,26.35C108.93,53.74,113.61,43.64,112.33,34.77Z"/><path class="cls-6" d="M77.76,36.2c-23.21,0-42,19.25-42,43a43.31,43.31,0,0,0,8.93,26.42l-2.81,14.8,13.65-4.81a41.11,41.11,0,0,0,22.26,6.57c23.22,0,42-19.24,42-43S101,36.2,77.76,36.2Z"/><path class="cls-7" d="M77.76,125.61a44.48,44.48,0,0,1-22.65-6.23l-17.69,6.23,3.63-19.15a46.62,46.62,0,0,1-8.7-27.28c0-25.6,20.37-46.43,45.41-46.43s45.42,20.83,45.42,46.43S102.8,125.61,77.76,125.61ZM55.93,111.79l1.37.87a37.79,37.79,0,0,0,20.46,6c21.32,0,38.66-17.73,38.66-39.53S99.08,39.66,77.76,39.66,39.11,57.39,39.11,79.18a39.7,39.7,0,0,0,8.21,24.3l1,1.24-2,10.47Z"/><path class="cls-7" d="M54.84,61.34s2.66-4.76,4.83-5,5-.28,5.73,1.18,4.12,9.88,4.12,9.88a3.38,3.38,0,0,1-.31,2.86,28.28,28.28,0,0,1-2.88,3.45,2.56,2.56,0,0,0,0,3,54.18,54.18,0,0,0,6.39,8c3.55,3.63,10.38,6.23,10.38,6.23a2.05,2.05,0,0,0,1.59-.5c.62-.64,4-5,4-5a2.33,2.33,0,0,1,2.88-.59c1.79.84,9.58,4.81,9.58,4.81a1.73,1.73,0,0,1,.91,1.75c0,1.4-.56,4.84-1.69,6s-4.47,4.74-9.47,4.74S74,98,67.66,91.55s-12-13.06-13.31-19S53.2,63.81,54.84,61.34Z"/></g></g></svg>